0
SECTION
2
HEADER
9
$INSUNITS
70
1
9
$ACADVER
1
AC1014
9
$HANDSEED
5
FFFF
0
ENDSEC
0
SECTION
2
TABLES
0
TABLE
2
VPORT
5
8
100
AcDbSymbolTable
0
ENDTAB
0
TABLE
2
LTYPE
5
5
100
AcDbSymbolTable
0
LTYPE
5
14
100
AcDbSymbolTableRecord
100
AcDbLinetypeTableRecord
2
BYBLOCK
70
0
0
LTYPE
5
15
100
AcDbSymbolTableRecord
100
AcDbLinetypeTableRecord
2
BYLAYER
70
0
0
LTYPE
5
16
100
AcDbSymbolTableRecord
100
AcDbLinetypeTableRecord
2
DASHED
70
0
3
Dashed __ __ __ __ __ __ __ __ __ __ __ __ __ _
72
65
73
2
40
0.75
49
0.5
74
0
49
-0.25
74
0
0
ENDTAB
0
TABLE
2
LAYER
5
2
100
AcDbSymbolTable
70
2
0
LAYER
5
50
100
AcDbSymbolTableRecord
100
AcDbLayerTableRecord
2
0
70
0
62
7
6
CONTINUOUS
0
ENDTAB
0
TABLE
2
STYLE
5
3
100
AcDbSymbolTable
70
1
0
STYLE
5
11
100
AcDbSymbolTableRecord
100
AcDbTextStyleTableRecord
2
STANDARD
70
0
0
ENDTAB
0
TABLE
2
VIEW
5
6
100
AcDbSymbolTable
70
0
0
ENDTAB
0
TABLE
2
UCS
5
7
100
AcDbSymbolTable
70
0
0
ENDTAB
0
TABLE
2
APPID
5
9
100
AcDbSymbolTable
70
2
0
APPID
5
12
100
AcDbSymbolTableRecord
100
AcDbRegAppTableRecord
2
ACAD
70
0
0
ENDTAB
0
TABLE
2
DIMSTYLE
5
A
100
AcDbSymbolTable
70
1
0
ENDTAB
0
TABLE
2
BLOCK_RECORD
5
1
100
AcDbSymbolTable
70
1
0
BLOCK_RECORD
5
1F
100
AcDbSymbolTableRecord
100
AcDbBlockTableRecord
2
*MODEL_SPACE
0
BLOCK_RECORD
5
1B
100
AcDbSymbolTableRecord
100
AcDbBlockTableRecord
2
*PAPER_SPACE
0
ENDTAB
0
ENDSEC
0
SECTION
2
BLOCKS
0
BLOCK
5
20
100
AcDbEntity
100
AcDbBlockBegin
2
*MODEL_SPACE
0
ENDBLK
5
21
100
AcDbEntity
100
AcDbBlockEnd
0
BLOCK
5
1C
100
AcDbEntity
100
AcDbBlockBegin
2
*PAPER_SPACE
0
ENDBLK
5
1D
100
AcDbEntity
100
AcDbBlockEnd
0
ENDSEC
0
SECTION
2
ENTITIES
0
POINT
5
100
100
AcDbEntity
8
0
100
AcDbPoint
10
0
20
0
30
0
0
POINT
5
101
100
AcDbEntity
8
0
100
AcDbPoint
10
1.9495181773974404
20
6
30
0
0
POINT
5
102
100
AcDbEntity
8
0
100
AcDbPoint
10
0.69860000000120215
20
5.9999999999999973
30
0
0
POINT
5
103
100
AcDbEntity
8
0
100
AcDbPoint
10
0.69860000000119993
20
5.4999999999999929
30
0
0
POINT
5
104
100
AcDbEntity
8
0
100
AcDbPoint
10
-0.69859999999880007
20
5.4999999999999929
30
0
0
POINT
5
105
100
AcDbEntity
8
0
100
AcDbPoint
10
-0.69859999999879785
20
6.0000000000003046
30
0
0
POINT
5
106
100
AcDbEntity
8
0
100
AcDbPoint
10
-1.9495181773965689
20
6.0000000000006315
30
0
0
POINT
5
107
100
AcDbEntity
8
0
100
AcDbPoint
10
0
20
0
30
0
0
POINT
5
108
100
AcDbEntity
8
0
100
AcDbPoint
10
-4.0918907860243827
20
4.4434751889991162
30
0
0
POINT
5
109
100
AcDbEntity
8
0
100
AcDbPoint
10
-3.7979981598779649
20
4.0389666918113889
30
0
0
POINT
5
110
100
AcDbEntity
8
0
100
AcDbPoint
10
-2.6676396153372881
20
4.8602202463144319
30
0
0
POINT
5
111
100
AcDbEntity
8
0
100
AcDbPoint
10
-5.1039048501119071
20
3.7082039325003904
30
0
0
POINT
5
112
100
AcDbEntity
8
0
100
AcDbPoint
10
-2.9615322414835257
20
5.2647287435019114
30
0
0
POINT
5
113
100
AcDbEntity
8
0
100
AcDbPoint
10
-5.922218370041179
20
1.1896938839671278
30
0
0
POINT
5
114
100
AcDbEntity
8
0
100
AcDbPoint
10
-5.4466901118933055
20
1.0351853867795557
30
0
0
POINT
5
115
100
AcDbEntity
8
0
100
AcDbPoint
10
-5.0149315673526287
20
2.3640015513471444
30
0
0
POINT
5
116
100
AcDbEntity
8
0
100
AcDbPoint
10
-6.3087733454299348
20
1.021754859198333e-12
30
0
0
POINT
5
117
100
AcDbEntity
8
0
100
AcDbPoint
10
-5.4904598255002091
20
2.5185100485346217
30
0
0
POINT
5
118
100
AcDbEntity
8
0
100
AcDbPoint
10
-5.4904598255012447
20
-2.5185100485324297
30
0
0
POINT
5
119
100
AcDbEntity
8
0
100
AcDbPoint
10
-5.0149315673533703
20
-2.3640015513448618
30
0
0
POINT
5
120
100
AcDbEntity
8
0
100
AcDbPoint
10
-5.4466901118940472
20
-1.0351853867772733
30
0
0
POINT
5
121
100
AcDbEntity
8
0
100
AcDbPoint
10
-5.1039048501131088
20
-3.7082039324987379
30
0
0
POINT
5
122
100
AcDbEntity
8
0
100
AcDbPoint
10
-5.9222183700416293
20
-1.1896938839647462
30
0
0
POINT
5
123
100
AcDbEntity
8
0
100
AcDbPoint
10
-2.9615322414856524
20
-5.2647287435007453
30
0
0
POINT
5
124
100
AcDbEntity
8
0
100
AcDbPoint
10
-2.6676396153392306
20
-4.8602202463130206
30
0
0
POINT
5
125
100
AcDbEntity
8
0
100
AcDbPoint
10
-3.7979981598799069
20
-4.0389666918099776
30
0
0
POINT
5
126
100
AcDbEntity
8
0
100
AcDbPoint
10
-1.9495181773985126
20
-5.9999999999999991
30
0
0
POINT
5
127
100
AcDbEntity
8
0
100
AcDbPoint
10
-4.0918907860261475
20
-4.4434751889974535
30
0
0
POINT
5
128
100
AcDbEntity
8
0
100
AcDbPoint
10
0.69859999999879707
20
-6.0000000000003046
30
0
0
POINT
5
129
100
AcDbEntity
8
0
100
AcDbPoint
10
0.6985999999987994
20
-5.4999999999999929
30
0
0
POINT
5
130
100
AcDbEntity
8
0
100
AcDbPoint
10
-0.69860000000120059
20
-5.4999999999999929
30
0
0
POINT
5
131
100
AcDbEntity
8
0
100
AcDbPoint
10
1.9495181773965682
20
-6.0000000000006315
30
0
0
POINT
5
132
100
AcDbEntity
8
0
100
AcDbPoint
10
-0.69860000000120293
20
-5.9999999999999973
30
0
0
POINT
5
133
100
AcDbEntity
8
0
100
AcDbPoint
10
4.0918907860243827
20
-4.443475188999118
30
0
0
POINT
5
134
100
AcDbEntity
8
0
100
AcDbPoint
10
3.7979981598779649
20
-4.0389666918113898
30
0
0
POINT
5
135
100
AcDbEntity
8
0
100
AcDbPoint
10
2.6676396153372881
20
-4.8602202463144328
30
0
0
POINT
5
136
100
AcDbEntity
8
0
100
AcDbPoint
10
5.103904850111908
20
-3.7082039325003917
30
0
0
POINT
5
137
100
AcDbEntity
8
0
100
AcDbPoint
10
2.9615322414835257
20
-5.2647287435019123
30
0
0
POINT
5
138
100
AcDbEntity
8
0
100
AcDbPoint
10
5.9222183700411772
20
-1.1896938839671278
30
0
0
POINT
5
139
100
AcDbEntity
8
0
100
AcDbPoint
10
5.4466901118933047
20
-1.0351853867795557
30
0
0
POINT
5
140
100
AcDbEntity
8
0
100
AcDbPoint
10
5.0149315673526278
20
-2.3640015513471444
30
0
0
POINT
5
141
100
AcDbEntity
8
0
100
AcDbPoint
10
6.308773345429934
20
-1.0221045357415219e-12
30
0
0
POINT
5
142
100
AcDbEntity
8
0
100
AcDbPoint
10
5.4904598255002082
20
-2.5185100485346212
30
0
0
POINT
5
143
100
AcDbEntity
8
0
100
AcDbPoint
10
5.4904598255012456
20
2.5185100485324279
30
0
0
POINT
5
144
100
AcDbEntity
8
0
100
AcDbPoint
10
5.0149315673533712
20
2.36400155134486
30
0
0
POINT
5
145
100
AcDbEntity
8
0
100
AcDbPoint
10
5.4466901118940472
20
1.0351853867772718
30
0
0
POINT
5
146
100
AcDbEntity
8
0
100
AcDbPoint
10
5.1039048501131088
20
3.7082039324987357
30
0
0
POINT
5
147
100
AcDbEntity
8
0
100
AcDbPoint
10
5.9222183700416293
20
1.1896938839647442
30
0
0
POINT
5
148
100
AcDbEntity
8
0
100
AcDbPoint
10
2.9615322414856529
20
5.2647287435007453
30
0
0
POINT
5
149
100
AcDbEntity
8
0
100
AcDbPoint
10
2.667639615339231
20
4.8602202463130215
30
0
0
POINT
5
150
100
AcDbEntity
8
0
100
AcDbPoint
10
3.7979981598799077
20
4.0389666918099776
30
0
0
POINT
5
151
100
AcDbEntity
8
0
100
AcDbPoint
10
1.9495181773985131
20
6
30
0
0
POINT
5
152
100
AcDbEntity
8
0
100
AcDbPoint
10
4.0918907860261493
20
4.4434751889974535
30
0
0
LINE
5
153
100
AcDbEntity
8
0
100
AcDbLine
10
1.9495181773974404
20
6
30
0
11
0.69860000000120215
21
5.9999999999999973
31
0
0
LINE
5
154
100
AcDbEntity
8
0
100
AcDbLine
10
0.69860000000120215
20
5.9999999999999973
30
0
11
0.69860000000119993
21
5.4999999999999929
31
0
0
LINE
5
155
100
AcDbEntity
8
0
100
AcDbLine
10
0.69860000000119993
20
5.4999999999999929
30
0
11
-0.69859999999880007
21
5.4999999999999929
31
0
0
LINE
5
156
100
AcDbEntity
8
0
100
AcDbLine
10
-0.69859999999880007
20
5.4999999999999929
30
0
11
-0.69859999999879785
21
6.0000000000003046
31
0
0
LINE
5
157
100
AcDbEntity
8
0
100
AcDbLine
10
-0.69859999999879785
20
6.0000000000003046
30
0
11
-1.9495181773965689
21
6.0000000000006315
31
0
0
CIRCLE
5
158
100
AcDbEntity
8
0
100
AcDbCircle
10
0
20
0
30
0
40
0.62992125984251968
210
0
220
-0
230
1
0
LINE
5
159
100
AcDbEntity
8
0
100
AcDbLine
10
-3.7979981598779649
20
4.0389666918113889
30
0
11
-4.0918907860243827
21
4.4434751889991162
31
0
0
LINE
5
160
100
AcDbEntity
8
0
100
AcDbLine
10
-4.0918907860243827
20
4.4434751889991162
30
0
11
-5.1039048501119071
21
3.7082039325003904
31
0
0
LINE
5
161
100
AcDbEntity
8
0
100
AcDbLine
10
-1.9495181773974353
20
6.0000000000000018
30
0
11
-2.9615322414835257
21
5.2647287435019114
31
0
0
LINE
5
162
100
AcDbEntity
8
0
100
AcDbLine
10
-2.6676396153372881
20
4.8602202463144319
30
0
11
-3.7979981598779649
21
4.0389666918113889
31
0
0
LINE
5
163
100
AcDbEntity
8
0
100
AcDbLine
10
-2.9615322414835257
20
5.2647287435019114
30
0
11
-2.6676396153372881
21
4.8602202463144319
31
0
0
LINE
5
164
100
AcDbEntity
8
0
100
AcDbLine
10
-5.4466901118933055
20
1.0351853867795557
30
0
11
-5.922218370041179
21
1.1896938839671278
31
0
0
LINE
5
165
100
AcDbEntity
8
0
100
AcDbLine
10
-5.922218370041179
20
1.1896938839671278
30
0
11
-6.3087733454299348
21
1.021754859198333e-12
31
0
0
LINE
5
166
100
AcDbEntity
8
0
100
AcDbLine
10
-5.1039048501122393
20
3.7082039324993721
30
0
11
-5.4904598255002091
21
2.5185100485346217
31
0
0
LINE
5
167
100
AcDbEntity
8
0
100
AcDbLine
10
-5.0149315673526287
20
2.3640015513471444
30
0
11
-5.4466901118933055
21
1.0351853867795557
31
0
0
LINE
5
168
100
AcDbEntity
8
0
100
AcDbLine
10
-5.4904598255002091
20
2.5185100485346217
30
0
11
-5.0149315673526287
21
2.3640015513471444
31
0
0
LINE
5
169
100
AcDbEntity
8
0
100
AcDbLine
10
-5.0149315673533703
20
-2.3640015513448618
30
0
11
-5.4904598255012447
21
-2.5185100485324297
31
0
0
LINE
5
170
100
AcDbEntity
8
0
100
AcDbLine
10
-5.4904598255012447
20
-2.5185100485324297
30
0
11
-5.1039048501131088
21
-3.7082039324987379
31
0
0
LINE
5
171
100
AcDbEntity
8
0
100
AcDbLine
10
-6.3087733454296044
20
2.0980592591341539e-15
30
0
11
-5.9222183700416293
21
-1.1896938839647462
31
0
0
LINE
5
172
100
AcDbEntity
8
0
100
AcDbLine
10
-5.4466901118940472
20
-1.0351853867772733
30
0
11
-5.0149315673533703
21
-2.3640015513448618
31
0
0
LINE
5
173
100
AcDbEntity
8
0
100
AcDbLine
10
-5.9222183700416293
20
-1.1896938839647462
30
0
11
-5.4466901118940472
21
-1.0351853867772733
31
0
0
LINE
5
174
100
AcDbEntity
8
0
100
AcDbLine
10
-2.6676396153392306
20
-4.8602202463130206
30
0
11
-2.9615322414856524
21
-5.2647287435007453
31
0
0
LINE
5
175
100
AcDbEntity
8
0
100
AcDbLine
10
-2.9615322414856524
20
-5.2647287435007453
30
0
11
-1.9495181773985126
21
-5.9999999999999991
31
0
0
LINE
5
176
100
AcDbEntity
8
0
100
AcDbLine
10
-5.1039048501122402
20
-3.7082039324993672
30
0
11
-4.0918907860261475
21
-4.4434751889974535
31
0
0
LINE
5
177
100
AcDbEntity
8
0
100
AcDbLine
10
-3.7979981598799069
20
-4.0389666918099776
30
0
11
-2.6676396153392306
21
-4.8602202463130206
31
0
0
LINE
5
178
100
AcDbEntity
8
0
100
AcDbLine
10
-4.0918907860261475
20
-4.4434751889974535
30
0
11
-3.7979981598799069
21
-4.0389666918099776
31
0
0
LINE
5
179
100
AcDbEntity
8
0
100
AcDbLine
10
0.6985999999987994
20
-5.4999999999999929
30
0
11
0.69859999999879707
21
-6.0000000000003046
31
0
0
LINE
5
180
100
AcDbEntity
8
0
100
AcDbLine
10
0.69859999999879707
20
-6.0000000000003046
30
0
11
1.9495181773965682
21
-6.0000000000006315
31
0
0
LINE
5
181
100
AcDbEntity
8
0
100
AcDbLine
10
-1.949518177397441
20
-6
30
0
11
-0.69860000000120293
21
-5.9999999999999973
31
0
0
LINE
5
182
100
AcDbEntity
8
0
100
AcDbLine
10
-0.69860000000120059
20
-5.4999999999999929
30
0
11
0.6985999999987994
21
-5.4999999999999929
31
0
0
LINE
5
183
100
AcDbEntity
8
0
100
AcDbLine
10
-0.69860000000120293
20
-5.9999999999999973
30
0
11
-0.69860000000120059
21
-5.4999999999999929
31
0
0
LINE
5
184
100
AcDbEntity
8
0
100
AcDbLine
10
3.7979981598779649
20
-4.0389666918113898
30
0
11
4.0918907860243827
21
-4.443475188999118
31
0
0
LINE
5
185
100
AcDbEntity
8
0
100
AcDbLine
10
4.0918907860243827
20
-4.443475188999118
30
0
11
5.103904850111908
21
-3.7082039325003917
31
0
0
LINE
5
186
100
AcDbEntity
8
0
100
AcDbLine
10
1.9495181773974346
20
-6.0000000000000027
30
0
11
2.9615322414835257
21
-5.2647287435019123
31
0
0
LINE
5
187
100
AcDbEntity
8
0
100
AcDbLine
10
2.6676396153372881
20
-4.8602202463144328
30
0
11
3.7979981598779649
21
-4.0389666918113898
31
0
0
LINE
5
188
100
AcDbEntity
8
0
100
AcDbLine
10
2.9615322414835257
20
-5.2647287435019123
30
0
11
2.6676396153372881
21
-4.8602202463144328
31
0
0
LINE
5
189
100
AcDbEntity
8
0
100
AcDbLine
10
5.4466901118933047
20
-1.0351853867795557
30
0
11
5.9222183700411772
21
-1.1896938839671278
31
0
0
LINE
5
190
100
AcDbEntity
8
0
100
AcDbLine
10
5.9222183700411772
20
-1.1896938839671278
30
0
11
6.308773345429934
21
-1.0221045357415219e-12
31
0
0
LINE
5
191
100
AcDbEntity
8
0
100
AcDbLine
10
5.1039048501122375
20
-3.7082039324993712
30
0
11
5.4904598255002082
21
-2.5185100485346212
31
0
0
LINE
5
192
100
AcDbEntity
8
0
100
AcDbLine
10
5.0149315673526278
20
-2.3640015513471444
30
0
11
5.4466901118933047
21
-1.0351853867795557
31
0
0
LINE
5
193
100
AcDbEntity
8
0
100
AcDbLine
10
5.4904598255002082
20
-2.5185100485346212
30
0
11
5.0149315673526278
21
-2.3640015513471444
31
0
0
LINE
5
194
100
AcDbEntity
8
0
100
AcDbLine
10
5.0149315673533712
20
2.36400155134486
30
0
11
5.4904598255012456
21
2.5185100485324279
31
0
0
LINE
5
195
100
AcDbEntity
8
0
100
AcDbLine
10
5.4904598255012456
20
2.5185100485324279
30
0
11
5.1039048501131088
21
3.7082039324987357
31
0
0
LINE
5
196
100
AcDbEntity
8
0
100
AcDbLine
10
6.3087733454296036
20
-4.1961185182683078e-15
30
0
11
5.9222183700416293
21
1.1896938839647442
31
0
0
LINE
5
197
100
AcDbEntity
8
0
100
AcDbLine
10
5.4466901118940472
20
1.0351853867772718
30
0
11
5.0149315673533712
21
2.36400155134486
31
0
0
LINE
5
198
100
AcDbEntity
8
0
100
AcDbLine
10
5.9222183700416293
20
1.1896938839647442
30
0
11
5.4466901118940472
21
1.0351853867772718
31
0
0
LINE
5
199
100
AcDbEntity
8
0
100
AcDbLine
10
2.667639615339231
20
4.8602202463130215
30
0
11
2.9615322414856529
21
5.2647287435007453
31
0
0
LINE
5
200
100
AcDbEntity
8
0
100
AcDbLine
10
2.9615322414856529
20
5.2647287435007453
30
0
11
1.9495181773985131
21
6
31
0
0
LINE
5
201
100
AcDbEntity
8
0
100
AcDbLine
10
5.1039048501122419
20
3.7082039324993672
30
0
11
4.0918907860261493
21
4.4434751889974535
31
0
0
LINE
5
202
100
AcDbEntity
8
0
100
AcDbLine
10
3.7979981598799077
20
4.0389666918099776
30
0
11
2.667639615339231
21
4.8602202463130215
31
0
0
LINE
5
203
100
AcDbEntity
8
0
100
AcDbLine
10
4.0918907860261493
20
4.4434751889974535
30
0
11
3.7979981598799077
21
4.0389666918099776
31
0
0
ENDSEC
0
SECTION
2
OBJECTS
0
DICTIONARY
5
C
100
AcDbDictionary
3
ACAD_GROUP
350
D
3
ACAD_MLINESTYLE
350
17
0
DICTIONARY
5
D
100
AcDbDictionary
0
DICTIONARY
5
1A
330
C
100
AcDbDictionary
0
DICTIONARY
5
17
100
AcDbDictionary
0
ENDSEC
0
EOF
